<?xml version="1.0" encoding="UTF-8" standalone="no"?><!DOCTYPE svg PUBLIC "-//W3C//DTD SVG 1.1//EN" "http://www.w3.org/Graphics/SVG/1.1/DTD/svg11.dtd"><svg width="100%" height="100%" viewBox="0 0 101 48" version="1.1" xmlns="http://www.w3.org/2000/svg" xmlns:xlink="http://www.w3.org/1999/xlink" xml:space="preserve" xmlns:serif="http://www.serif.com/" style="fill-rule:evenodd;clip-rule:evenodd;stroke-linejoin:round;stroke-miterlimit:2;"><rect x="0" y="28.61" width="3" height="14.71" style="fill:#2d3544;fill-rule:nonzero;"/><path d="M4.74,38.28c0,-0.003 0,-0.007 0,-0.01c0,-2.929 2.411,-5.34 5.34,-5.34c2.929,0 5.34,2.411 5.34,5.34c0,2.929 -2.411,5.34 -5.34,5.34c-0.02,0 -0.04,0 -0.06,0c-2.897,0 -5.28,-2.383 -5.28,-5.28c0,-0.016 0,-0.033 0,-0.05Zm7.66,0c-0.032,-1.25 -1.069,-2.26 -2.319,-2.26c-1.273,0 -2.32,1.047 -2.32,2.32c0,1.272 1.047,2.32 2.319,2.32c0.021,0.001 0.042,0.001 0.063,0.001c1.24,0 2.26,-1.02 2.26,-2.26c0,-0.04 -0.001,-0.081 -0.003,-0.121Z" style="fill:#2d3544;fill-rule:nonzero;"/><path d="M27.48,33.24l0,9.58c0,3.39 -2.65,4.82 -5.33,4.82c-1.918,0.143 -3.763,-0.801 -4.77,-2.44l2.58,-1.49c0.418,0.843 1.313,1.348 2.25,1.27c0.109,0.018 0.219,0.027 0.329,0.027c1.097,0 2,-0.903 2,-2c0,-0.062 -0.003,-0.125 -0.009,-0.187l0,-0.93c-0.715,0.879 -1.808,1.367 -2.94,1.31c-2.809,0 -5.12,-2.311 -5.12,-5.12c0,-2.809 2.311,-5.12 5.12,-5.12c1.131,-0.052 2.222,0.435 2.94,1.31l0,-1l2.95,-0.03Zm-2.95,4.84c0.001,-0.033 0.002,-0.067 0.002,-0.1c0,-1.339 -1.101,-2.44 -2.44,-2.44c-1.338,0 -2.44,1.101 -2.44,2.44c0,1.338 1.1,2.439 2.438,2.44c0.054,0.004 0.107,0.006 0.161,0.006c1.251,0 2.28,-1.03 2.28,-2.28c0,-0.022 0,-0.044 -0.001,-0.066Z" style="fill:#2d3544;fill-rule:nonzero;"/><path d="M29.21,38.28c0,-0.003 0,-0.007 0,-0.01c0,-2.929 2.411,-5.34 5.34,-5.34c2.929,0 5.34,2.411 5.34,5.34c0,2.929 -2.411,5.34 -5.34,5.34c-0.02,0 -0.04,0 -0.06,0c-2.897,0 -5.28,-2.383 -5.28,-5.28c0,-0.016 0,-0.033 0,-0.05Zm7.66,0c-0.032,-1.25 -1.069,-2.26 -2.319,-2.26c-1.273,0 -2.32,1.047 -2.32,2.32c0,1.272 1.047,2.32 2.319,2.32c0.014,0 0.029,0 0.043,0c1.24,0 2.26,-1.02 2.26,-2.26c0,-0.04 -0.001,-0.08 -0.003,-0.12l0.02,0Z" style="fill:#2d3544;fill-rule:nonzero;"/><path d="M41.28,30.54c0,-0.998 0.822,-1.82 1.82,-1.82c0.998,0 1.82,0.822 1.82,1.82c0,0.998 -0.822,1.82 -1.82,1.82c-0.996,-0.005 -1.815,-0.824 -1.82,-1.82Zm0.31,2.7l3,0l0,10.08l-3,0l0,-10.08Z" style="fill:#2d3544;fill-rule:nonzero;"/><path d="M57.67,38.28c0.005,0.092 0.008,0.184 0.008,0.276c0,2.684 -2.137,4.925 -4.818,5.054c-1.132,0.054 -2.232,-0.397 -3,-1.23l0,5l-3,0l0,-14.14l3,0l0,0.95c0.768,-0.833 1.868,-1.284 3,-1.23c2.681,0.129 4.817,2.37 4.817,5.054c0,0.089 -0.002,0.177 -0.007,0.266Zm-3,0c-0.033,-1.293 -1.106,-2.339 -2.399,-2.339c-1.317,0 -2.4,1.083 -2.4,2.4c0,1.293 1.046,2.366 2.339,2.399c0.049,0.003 0.097,0.005 0.146,0.005c1.262,0 2.3,-1.039 2.3,-2.3c0,-0.055 -0.002,-0.11 -0.006,-0.165l0.02,0Z" style="fill:#2d3544;fill-rule:nonzero;"/><path d="M67.01,40.3c0,2.32 -2,3.31 -4.2,3.31c-1.794,0.159 -3.514,-0.794 -4.33,-2.4l2.62,-1.49c0.218,0.747 0.934,1.245 1.71,1.19c0.73,0 1.09,-0.23 1.09,-0.63c0,-1.11 -5,-0.52 -5,-4c0,-2.2 1.86,-3.31 4,-3.31c1.606,-0.049 3.117,0.78 3.94,2.16l-2.63,1.38c-0.237,-0.539 -0.772,-0.888 -1.36,-0.89c-0.52,0 -0.84,0.2 -0.84,0.57c0.04,1.15 5,0.38 5,4.11Z" style="fill:#2d3544;fill-rule:nonzero;"/><path d="M78.05,33.24l0,10.08l-3,0l0,-0.94c-0.707,0.847 -1.779,1.304 -2.88,1.23c-2,0 -3.77,-1.45 -3.77,-4.18l0,-6.19l3,0l0,5.75c-0.006,0.059 -0.01,0.118 -0.01,0.178c0,0.91 0.75,1.66 1.66,1.66c0.054,0 0.107,-0.003 0.16,-0.008c1.1,0 1.87,-0.64 1.87,-2.07l0,-5.51l2.97,0Z" style="fill:#2d3544;fill-rule:nonzero;"/><path d="M95.39,37.14l0,6.18l-3,0l0,-5.92c0,-1 -0.49,-1.66 -1.45,-1.66c-0.96,0 -1.58,0.71 -1.58,1.9l0,5.68l-3,0l0,-5.92c0,-1 -0.48,-1.66 -1.45,-1.66c-0.97,0 -1.57,0.71 -1.57,1.9l0,5.68l-3,0l0,-10.08l3,0l0,0.93c0.636,-0.834 1.654,-1.29 2.7,-1.21c1.051,-0.051 2.055,0.455 2.64,1.33c0.68,-0.914 1.784,-1.418 2.92,-1.33c2.28,0 3.79,1.66 3.79,4.18Z" style="fill:#2d3544;fill-rule:nonzero;"/><circle cx="97.95" cy="30.94" r="2.24" style="fill:#2d3544;"/><circle cx="33.95" cy="10.49" r="10.49" style="fill:#e9eaf1;"/><circle cx="57.4" cy="10.49" r="10.49" style="fill:#2d3544;"/><rect x="0.02" y="0" width="20.97" height="20.97" style="fill:#2b8dde;"/></svg>