<?xml version="1.0" encoding="utf-8"?>
<!-- Generator: Adobe Illustrator 23.0.3, SVG Export Plug-In . SVG Version: 6.00 Build 0)  -->
<svg version="1.1" id="Ebene_1" xmlns="http://www.w3.org/2000/svg" xmlns:xlink="http://www.w3.org/1999/xlink" x="0px" y="0px"
	 viewBox="0 0 220.2 51.9" style="enable-background:new 0 0 220.2 51.9;" xml:space="preserve">
<style type="text/css">
	.st0{fill:#00527E;}
	.st1{fill:#80A8BF;}
</style>
<g>
	<path class="st0" d="M14.5,15.5L14.5,15.5c3.6-0.7,6.1-3.3,6.1-6.9c0-6.7-5.9-7.8-9.9-7.8H0v30.6h10.7c3.9,0,10.8-1.1,10.8-8.9
		C21.5,18.7,18.6,15.9,14.5,15.5z M6.1,5.5h2.4c2.8,0,5.9,0.3,5.9,3.8c0,3.2-3.2,3.7-5.8,3.7H6.1V5.5z M9,26.5H6.1v-8.9H9
		c3.1,0,6.3,0.6,6.3,4.6C15.3,25.8,11.9,26.5,9,26.5z"/>
	<polygon class="st0" points="30.8,0.7 24.6,0.7 24.6,31.3 42.7,31.3 42.7,26.5 30.8,26.5 	"/>
	<path class="st0" d="M62.4,18.4c0,5.2-1.7,8.6-6.4,8.6c-4.7,0-6.4-3.4-6.4-8.6V0.7h-6.1v19.6c0,8.2,4.6,11.6,12.5,11.6
		c7.8,0,12.5-3.4,12.5-11.6V0.7h-6.1V18.4z"/>
	<polygon class="st0" points="79.2,13.1 79.2,5.5 82.9,5.5 80.3,0.7 73.1,0.7 73.1,31.3 91.2,31.3 91.2,26.5 79.2,26.5 79.2,17.9 
		89.4,17.9 86.8,13.1 	"/>
	<path class="st1" d="M123.8,2.6c2.1,0,4.9,0.3,6.8,1.3l0.2-2.7c-1.6-0.8-5.2-1.1-7-1.1c-9.5,0-15.4,6.4-15.4,15.5
		c0,9.3,5.8,15.5,15.4,15.5c1.9,0,5.3-0.3,7-1.3l-0.2-2.6c-1.8,1-4.8,1.3-6.8,1.3c-8.1,0-12.4-5.4-12.4-12.9
		C111.4,8.1,115.9,2.6,123.8,2.6z"/>
	<path class="st1" d="M144.2,15.3L144.2,15.3c3.8-0.6,6.8-3.1,6.8-7c0-5.5-3.6-7.8-9-7.8h-7.9v30h3V16.4h2.5c2.9,0,4.2,0.1,6,4
		l4.4,10.1h3.3l-5.2-11.6C147.2,16.9,146.7,15.6,144.2,15.3z M140.4,13.8h-3.2V3.1h3.1c4.2,0,7.7,0.3,7.7,5.2
		C148,12.5,143.9,13.8,140.4,13.8z"/>
	<polygon class="st1" points="160.2,16.4 171.6,16.4 171.6,13.8 160.2,13.8 160.2,3.1 172.2,3.1 172.2,0.5 157.2,0.5 157.2,30.5 
		172.7,30.5 172.7,27.9 160.2,27.9 	"/>
	<polygon class="st1" points="180.4,16.4 191.8,16.4 191.8,13.8 180.4,13.8 180.4,3.1 192.4,3.1 192.4,0.5 177.4,0.5 177.4,30.5 
		192.9,30.5 192.9,27.9 180.4,27.9 	"/>
	<polygon class="st1" points="216.9,0.5 216.9,26.9 216.8,26.9 201.3,0.5 197.5,0.5 197.5,30.5 200.5,30.5 200.5,4.6 200.6,4.6 
		215.9,30.5 219.9,30.5 219.9,0.5 	"/>
	<g>
		<path class="st1" d="M106.5,22.5c0-8.8-14-8.8-14-14.8c0-3.9,3.5-5.2,6.6-5.2c2.1,0,4.2,0.4,5.6,1.1l0.5-2.7c-2.1-0.8-4.5-1-6-1
			c-5.4,0-9.7,3-9.7,7.8c0,7.9,14,8.6,14,14.5c0,4.3-3.1,6.1-6.9,6.1c-0.6,0-1.2,0-1.7-0.1l1.4,2.7c0.1,0,0.1,0,0.2,0
			C101.2,31,106.5,28.6,106.5,22.5z"/>
	</g>
	<line class="st0" x1="81.2" y1="0.7" x2="81.2" y2="0.7"/>
</g>
<g>
	<path class="st0" d="M101.5,48.5h-1v-1.3h0c-0.5,1-1.3,1.4-2.5,1.4c-2.2,0-3.3-1.8-3.3-4.1c0-2.4,0.9-4.1,3.3-4.1
		c1.6,0,2.3,1.1,2.5,1.5h0v-5.1h1V48.5z M98.2,47.8c1.7,0,2.3-1.9,2.3-3.3c0-1.4-0.6-3.3-2.3-3.3c-1.9,0-2.3,1.8-2.3,3.3
		C95.9,46.1,96.4,47.8,98.2,47.8z"/>
	<path class="st0" d="M104.9,38.5h-1v-1.3h1V38.5z M103.9,40.6h1v7.9h-1V40.6z"/>
	<path class="st0" d="M113.7,47.8c0,2.2-1,4-3.7,4c-1,0-2-0.3-2.4-0.4l0.1-1c0.6,0.3,1.5,0.6,2.3,0.6c2.5,0,2.7-1.8,2.7-4.1h0
		c-0.5,1.1-1.4,1.6-2.4,1.6c-2.5,0-3.3-2.2-3.3-4c0-2.4,0.9-4.1,3.3-4.1c1.1,0,1.7,0.1,2.5,1.1h0v-0.9h1V47.8z M110.3,47.7
		c1.8,0,2.4-1.7,2.4-3.1c0-1.9-0.6-3.3-2.3-3.3c-1.9,0-2.3,1.8-2.3,3.3C108,46.1,108.7,47.7,110.3,47.7z"/>
	<path class="st0" d="M117.1,38.5h-1v-1.3h1V38.5z M116.1,40.6h1v7.9h-1V40.6z"/>
	<path class="st0" d="M123,41.4h-1.8v5.1c0,0.7,0.3,1.3,1.1,1.3c0.4,0,0.6-0.1,0.9-0.2l0.1,0.8c-0.2,0.1-0.7,0.2-1.2,0.2
		c-1.7,0-1.8-1.2-1.8-2.6v-4.6h-1.6v-0.8h1.6v-1.9l1-0.3v2.3h1.8V41.4z"/>
	<path class="st0" d="M129.4,47.2L129.4,47.2c-0.5,0.9-1.6,1.5-2.5,1.5c-2.3,0-2.6-1.5-2.6-2.2c0-2.7,2.8-2.8,4.9-2.8h0.2v-0.4
		c0-1.4-0.5-2-1.8-2c-0.8,0-1.6,0.2-2.3,0.7v-0.9c0.6-0.3,1.6-0.5,2.3-0.5c2,0,2.8,0.9,2.8,3v3.5c0,0.6,0,1.1,0.1,1.7h-1V47.2z
		 M129.3,44.5H129c-1.7,0-3.7,0.2-3.7,1.9c0,1,0.7,1.4,1.6,1.4c2.3,0,2.3-2,2.3-2.9V44.5z"/>
	<path class="st0" d="M132.6,36.9h1v11.6h-1V36.9z"/>
	<path class="st0" d="M145.7,41.6c-0.5-0.2-1.2-0.4-1.7-0.4c-1.9,0-3,1.4-3,3.3c0,1.8,1.1,3.3,2.9,3.3c0.6,0,1.2-0.1,1.8-0.4
		l0.1,0.9c-0.7,0.2-1.3,0.3-2,0.3c-2.5,0-3.8-1.9-3.8-4.1c0-2.4,1.6-4.1,3.9-4.1c0.9,0,1.6,0.2,1.9,0.3L145.7,41.6z"/>
	<path class="st0" d="M150.5,40.4c2.6,0,3.7,2,3.7,4.1c0,2.2-1.1,4.1-3.7,4.1s-3.7-2-3.7-4.1C146.8,42.4,148,40.4,150.5,40.4z
		 M150.5,47.8c1.7,0,2.6-1.5,2.6-3.3c0-1.8-0.9-3.3-2.6-3.3c-1.7,0-2.6,1.5-2.6,3.3C147.9,46.4,148.8,47.8,150.5,47.8z"/>
	<path class="st0" d="M165.7,48.5v-5.3c0-1.1-0.4-2-1.7-2c-1.1,0-2.1,0.9-2.1,2.9v4.4h-1v-5.3c0-1.1-0.4-2-1.7-2
		c-1.1,0-2.1,0.9-2.1,2.9v4.4h-1v-6.1c0-0.6,0-1.2-0.1-1.9h0.9v1.3l0,0c0.3-0.5,0.8-1.5,2.5-1.5c0.7,0,1.8,0.3,2.1,1.7h0
		c0.4-0.9,1.3-1.7,2.5-1.7c1.6,0,2.5,1.1,2.5,2.7v5.5H165.7z"/>
	<path class="st0" d="M169,40.6h1l-0.1,1.4h0c0.2-0.4,0.9-1.6,2.5-1.6c2.3,0,3.3,1.7,3.3,4.1c0,2.3-1.1,4.1-3.3,4.1
		c-1.2,0-2-0.5-2.5-1.5h0v4.6h-1V40.6z M172.3,41.2c-1.7,0-2.3,1.9-2.3,3.3c0,1.4,0.6,3.3,2.3,3.3c1.9,0,2.3-1.8,2.3-3.3
		C174.7,43,174.2,41.2,172.3,41.2z"/>
	<path class="st0" d="M183.1,48.3c-0.7,0.3-1.6,0.4-2.3,0.4c-2.6,0-3.6-1.8-3.6-4.1c0-2.4,1.3-4.1,3.3-4.1c2.2,0,3.2,1.8,3.2,3.9
		v0.5h-5.4c0,1.7,0.9,3,2.6,3c0.7,0,1.8-0.3,2.2-0.6V48.3z M182.6,44c0-1.4-0.6-2.7-2-2.7c-1.4,0-2.3,1.4-2.3,2.7H182.6z"/>
	<path class="st0" d="M189,41.4h-1.8v5.1c0,0.7,0.3,1.3,1.1,1.3c0.4,0,0.6-0.1,0.9-0.2l0.1,0.8c-0.2,0.1-0.7,0.2-1.2,0.2
		c-1.7,0-1.8-1.2-1.8-2.6v-4.6h-1.6v-0.8h1.6v-1.9l1-0.3v2.3h1.8V41.4z"/>
	<path class="st0" d="M196.1,48.3c-0.7,0.3-1.6,0.4-2.3,0.4c-2.6,0-3.6-1.8-3.6-4.1c0-2.4,1.3-4.1,3.3-4.1c2.2,0,3.2,1.8,3.2,3.9
		v0.5h-5.4c0,1.7,0.9,3,2.6,3c0.7,0,1.8-0.3,2.2-0.6V48.3z M195.6,44c0-1.4-0.6-2.7-2-2.7c-1.4,0-2.3,1.4-2.3,2.7H195.6z"/>
	<path class="st0" d="M198.6,42.4c0-0.6,0-1.2-0.1-1.9h0.9V42h0c0.3-0.7,0.9-1.6,2.6-1.6c2,0,2.7,1.3,2.7,3v5.1h-1v-4.8
		c0-1.5-0.5-2.5-1.9-2.5c-1.8,0-2.3,1.6-2.3,2.9v4.4h-1V42.4z"/>
	<path class="st0" d="M212.5,41.6c-0.5-0.2-1.2-0.4-1.7-0.4c-1.9,0-3,1.4-3,3.3c0,1.8,1.1,3.3,2.9,3.3c0.6,0,1.2-0.1,1.8-0.4
		l0.1,0.9c-0.7,0.2-1.3,0.3-2,0.3c-2.5,0-3.8-1.9-3.8-4.1c0-2.4,1.6-4.1,3.9-4.1c0.9,0,1.6,0.2,1.9,0.3L212.5,41.6z"/>
	<path class="st0" d="M219.6,48.3c-0.7,0.3-1.6,0.4-2.3,0.4c-2.6,0-3.6-1.8-3.6-4.1c0-2.4,1.3-4.1,3.3-4.1c2.2,0,3.2,1.8,3.2,3.9
		v0.5h-5.4c0,1.7,0.9,3,2.6,3c0.7,0,1.8-0.3,2.2-0.6V48.3z M219.1,44c0-1.4-0.6-2.7-2-2.7c-1.4,0-2.3,1.4-2.3,2.7H219.1z"/>
</g>
</svg>
