<?xml version="1.0" encoding="UTF-8" standalone="no"?><!DOCTYPE svg PUBLIC "-//W3C//DTD SVG 1.1//EN" "http://www.w3.org/Graphics/SVG/1.1/DTD/svg11.dtd"><svg width="100%" height="100%" viewBox="0 0 213 27" version="1.1" xmlns="http://www.w3.org/2000/svg" xmlns:xlink="http://www.w3.org/1999/xlink" xml:space="preserve" xmlns:serif="http://www.serif.com/" style="fill-rule:evenodd;clip-rule:evenodd;stroke-linejoin:round;stroke-miterlimit:2;"><g id="Layer-1" serif:id="Layer 1"><g transform="matrix(1,0,0,1,-5.4185,-5.6691)"><text x="4.104px" y="32.185px" style="font-family:'ArialMT', 'Arial', sans-serif;font-size:18px;">D<tspan x="17.554px 30.009px 42.465px 47.916px 62.367px " y="32.185px 32.185px 32.185px 32.185px 32.185px ">ESIGN</tspan></text><text x="83.775px" y="32.185px" style="font-family:'ArialMT', 'Arial', sans-serif;font-size:18px;"><tspan x="83.775px 99.219px 109.68px 120.14px 130.601px 138.559px 143.008px 153.469px 160.434px 172.89px 183.351px 192.801px 198.252px 204.696px 209.145px " y="32.185px 32.185px 32.185px 32.185px 32.185px 32.185px 32.185px 32.185px 32.185px 32.185px 32.185px 32.185px 32.185px 32.185px 32.185px ">Made in Austria</tspan></text></g><rect x="0" y="0" width="47" height="7" style="fill:#ed2939;"/><rect x="47" y="0" width="47" height="7" style="fill:#fff;"/><rect x="94" y="0" width="47" height="7" style="fill:#ed2939;"/></g></svg>